{"title":"Welcome to New York (2014) TS [RUS]","uid":10685286,"size":738807808,"categoryP":"video","categoryS":"movies","magnet":"?xt=urn:btih:b6135dc7081f6cb83e82591c6066da32ac83dc7a&amp;dn=Welcome+to+New+York+%282014%29+TS+%5BRUS%5D&amp;tr=udp%3A%2F%2Ftracker.openbittorrent.com%3A80&amp;tr=udp%3A%2F%2Fopen.demonii.com%3A1337&amp;tr=udp%3A%2F%2Ftracker.coppersurfer.tk%3A6969&amp;tr=udp%3A%2F%2Fexodus.desync.com%3A6969","seeders":3,"leechers":0,"uploader":"yfjfrj","files":1,"time":1407074677,"description":"Welcome to New York (2014) TS [RUS]\n\nMr. Devereaux is a powerful man. A man who handles billions of dollars every day. A man who controls the economic fate of nations. A man driven by a frenzied and unbridled sexual hunger. A man who dreamed of saving the world and who cannot save himself. A terrified man. A lost man.\n\nMI:\nGeneral\nComplete name                            : D:moviesD0bro.P0zhal0vat.v.New.Y0rk.2014.P.TS.700MB.avi\nFormat                                   : AVI\nFormat/Info                              : Audio Video Interleave\nFile size                                : 705 MiB\nDuration                                 : 1h 44mn\nOverall bit rate mode                    : Variable\nOverall bit rate                         : 946 Kbps\nWriting application                      : VirtualDubMod 1.5.10.3 | www.virtualdub-fr.org || (build 2550/release)\nWriting library                          : VirtualDubMod build 2550/release\n\nVideo\nID                                       : 0\nFormat                                   : MPEG-4 Visual\nFormat profile                           : Advanced Simple@L5\nFormat settings, BVOP                    : 2\nFormat settings, QPel                    : No\nFormat settings, GMC                     : No warppoints\nFormat settings, Matrix                  : Default (MPEG)\nCodec ID                                 : XVID\nCodec ID/Hint                            : XviD\nDuration                                 : 1h 44mn\nBit rate                                 : 799 Kbps\nWidth                                    : 656 pixels\nHeight                                   : 368 pixels\nDisplay aspect ratio                     : 16:9\nFrame rate                               : 59.940 fps\nColor space                              : YUV\nChroma subsampling                       : 4:2:0\nBit depth                                : 8 bits\nScan type                                : Progressive\nCompression mode                         : Lossy\nBits/(Pixel*Frame)                       : 0.055\nStream size                              : 595 MiB (84%)\nWriting library                          : XviD 1.2.1 (UTC 2008-12-04)\n\nAudio\nID                                       : 1\nFormat                                   : MPEG Audio\nFormat version                           : Version 1\nFormat profile                           : Layer 3\nCodec ID                                 : 55\nCodec ID/Hint                            : MP3\nDuration                                 : 1h 44mn\nBit rate mode                            : Variable\nBit rate                                 : 128 Kbps\nChannel(s)                               : 2 channels\nSampling rate                            : 44.1 KHz\nCompression mode                         : Lossy\nStream size                              : 95.3 MiB (14%)\nAlignment                                : Split accross interleaves\nInterleave, duration                     : 26 ms (1.57 video frames)\nInterleave, preload duration             : 495 ms\n\nScreens: &lt;a href=&quot;\nhttp://i5.imageban.ru/out/2014/08/03/e975bfd1ca6462614846f93fb23248c7.png&quot; rel=&quot;nofollow&quot; target=&quot;_NEW&quot;&gt;\nhttp://i5.imageban.ru/out/2014/08/03/e975bfd1ca6462614846f93fb23248c7.png&lt;/a&gt; &lt;a href=&quot;\nhttp://i6.imageban.ru/out/2014/08/03/d40dbcf6c21d4bc8a4c1923c00f0d5de.png&quot; rel=&quot;nofollow&quot; target=&quot;_NEW&quot;&gt;\nhttp://i6.imageban.ru/out/2014/08/03/d40dbcf6c21d4bc8a4c1923c00f0d5de.png&lt;/a&gt; &lt;a href=&quot;\nhttp://i5.imageban.ru/out/2014/08/03/e66f42399ff5b3c26df9b4b3ec77e8b1.png&quot; rel=&quot;nofollow&quot; target=&quot;_NEW&quot;&gt;\nhttp://i5.imageban.ru/out/2014/08/03/e66f42399ff5b3c26df9b4b3ec77e8b1.png&lt;/a&gt; &lt;a href=&quot;\nhttp://i6.imageban.ru/out/2014/08/03/aa9dd662dbb2a81e4dc5e08cc23b8f06.png&quot; rel=&quot;nofollow&quot; target=&quot;_NEW&quot;&gt;\nhttp://i6.imageban.ru/out/2014/08/03/aa9dd662dbb2a81e4dc5e08cc23b8f06.png&lt;/a&gt; &lt;a href=&quot;\nhttp://i4.imageban.ru/out/2014/08/03/7660d58d5ab951fc92086d4d6b1b12fa.png&quot; rel=&quot;nofollow&quot; target=&quot;_NEW&quot;&gt;\nhttp://i4.imageban.ru/out/2014/08/03/7660d58d5ab951fc92086d4d6b1b12fa.png&lt;/a&gt; &lt;a href=&quot;\nhttp://i4.imageban.ru/out/2014/08/03/34dd53ade760263aa2a3908a94e8999c.png&quot; rel=&quot;nofollow&quot; target=&quot;_NEW&quot;&gt;\nhttp://i4.imageban.ru/out/2014/08/03/34dd53ade760263aa2a3908a94e8999c.png&lt;/a&gt; &lt;a href=&quot;\nhttp://i5.imageban.ru/out/2014/08/03/46e6878ea0ca4808e7252481dba2fe01.png&quot; rel=&quot;nofollow&quot; target=&quot;_NEW&quot;&gt;\nhttp://i5.imageban.ru/out/2014/08/03/46e6878ea0ca4808e7252481dba2fe01.png&lt;/a&gt; &lt;a href=&quot;\nhttp://i4.imageban.ru/out/2014/08/03/7f0a2a11d1b98a7d15e805634523b676.png&quot; rel=&quot;nofollow&quot; target=&quot;_NEW&quot;&gt;\nhttp://i4.imageban.ru/out/2014/08/03/7f0a2a11d1b98a7d15e805634523b676.png&lt;/a&gt; &lt;a href=&quot;\nhttp://i6.imageban.ru/out/2014/08/03/df5ad6d918ca5618e41e57d876d32990.png&quot; rel=&quot;nofollow&quot; target=&quot;_NEW&quot;&gt;\nhttp://i6.imageban.ru/out/2014/08/03/df5ad6d918ca5618e41e57d876d32990.png&lt;/a&gt; &lt;a href=&quot;\nhttp://i5.imageban.ru/out/2014/08/03/9cee8e23d49a2ec517d56db08956cf41.png&quot; rel=&quot;nofollow&quot; target=&quot;_NEW&quot;&gt;\nhttp://i5.imageban.ru/out/2014/08/03/9cee8e23d49a2ec517d56db08956cf41.png&lt;/a&gt; &lt;a href=&quot;\nhttp://i1.imageban.ru/out/2014/08/03/ed004402bcf54941beb60a819ea39a2d.png&quot; rel=&quot;nofollow&quot; target=&quot;_NEW&quot;&gt;\nhttp://i1.imageban.ru/out/2014/08/03/ed004402bcf54941beb60a819ea39a2d.png&lt;/a&gt; &lt;a href=&quot;\nhttp://i5.imageban.ru/out/2014/08/03/9b8185482d0f02d92c191d7d96b8fc5f.png&quot; rel=&quot;nofollow&quot; target=&quot;_NEW&quot;&gt;\nhttp://i5.imageban.ru/out/2014/08/03/9b8185482d0f02d92c191d7d96b8fc5f.png&lt;/a&gt; &lt;a href=&quot;\nhttp://i4.imageban.ru/out/2014/08/03/264d91645d5c8ac8884b221d1f462289.png&quot; rel=&quot;nofollow&quot; target=&quot;_NEW&quot;&gt;\nhttp://i4.imageban.ru/out/2014/08/03/264d91645d5c8ac8884b221d1f462289.png&lt;/a&gt;","torrent":{"xt":"urn:btih:b6135dc7081f6cb83e82591c6066da32ac83dc7a","amp;dn":"Welcome+to+New+York+%282014%29+TS+%5BRUS%5D","amp;tr":["udp%3A%2F%2Ftracker.openbittorrent.com%3A80","udp%3A%2F%2Fopen.demonii.com%3A1337","udp%3A%2F%2Ftracker.coppersurfer.tk%3A6969","udp%3A%2F%2Fexodus.desync.com%3A6969"],"infoHash":"b6135dc7081f6cb83e82591c6066da32ac83dc7a","infoHashBuffer":{"type":"Buffer","data":[182,19,93,199,8,31,108,184,62,130,89,28,96,102,218,50,172,131,220,122]},"announce":[],"urlList":[]}}